<svg width="496" height="282" viewBox="0 0 496 282" fill="none" xmlns="http://www.w3.org/2000/svg">
<rect x="343.553" y="173.113" width="29.9963" height="5.02276" transform="rotate(19 343.553 173.113)" fill="#755FFE"/>
<rect x="317.556" y="12.722" width="13.7282" height="2.98925" transform="rotate(-49 317.556 12.722)" fill="#FC9E1C"/>
<rect x="170.706" y="195.481" width="5.59418" height="7.05627" transform="rotate(-89 170.706 195.481)" fill="#F62584" fill-opacity="0.65"/>
<rect x="46.6616" y="152.778" width="5.59418" height="5.02276" transform="rotate(70 46.6616 152.778)" fill="#FFED36" fill-opacity="0.9"/>
<rect x="89.3652" y="97.8732" width="27.9628" height="5.02276" transform="rotate(10 89.3652 97.8732)" fill="#03A3F5" fill-opacity="0.65"/>
<rect x="36.4939" y="150.744" width="9.66119" height="2.98925" transform="rotate(-113 36.4939 150.744)" fill="#DCBCFA" fill-opacity="0.65"/>
<rect x="83.7031" y="22.8896" width="23.8957" height="2.98925" transform="rotate(130 83.7031 22.8896)" fill="#C9FCBE"/>
<rect x="176.806" y="195.481" width="11.6947" height="7.05627" transform="rotate(-46 176.806 195.481)" fill="#DCBCFA" fill-opacity="0.9"/>
<rect x="422.86" y="130.409" width="29.9963" height="5.02276" transform="rotate(3 422.86 130.409)" fill="#F54721" fill-opacity="0.45"/>
<rect x="3.95801" y="87.7056" width="25.9292" height="5.02276" transform="rotate(52 3.95801 87.7056)" fill="#DCBCFA" fill-opacity="0.75"/>
<ellipse cx="412.946" cy="18.5" rx="4" ry="4.5" fill="#4BC8EF"/>
<circle cx="136.946" cy="103" r="5" fill="#9DED1A" fill-opacity="0.85"/>
<circle cx="101.946" cy="82.2563" r="6" fill="#BA3E03" fill-opacity="0.9"/>
<circle cx="92.9463" cy="125.256" r="3" fill="#F54721" fill-opacity="0.9"/>
<circle cx="202.946" cy="184.256" r="5" fill="#F62584" fill-opacity="0.85"/>
<circle cx="206.946" cy="223.256" r="3" fill="#F62584" fill-opacity="0.9"/>
<ellipse cx="489.946" cy="199.5" rx="6" ry="6.5" fill="#9DED1A" fill-opacity="0.9"/>
<ellipse cx="153.946" cy="15.7562" rx="5" ry="5.5" fill="#C9FCBE" fill-opacity="0.45"/>
<circle cx="65.9463" cy="34.2562" r="5" fill="#03A3F5"/>
<circle cx="409.946" cy="221" r="3" fill="#FFED36" fill-opacity="0.6"/>
<path d="M332.838 252.691L335.477 259.224L331.139 264.776L324.162 263.795L321.522 257.262L325.86 251.71L332.838 252.691Z" fill="#4BC8EF" fill-opacity="0.85"/>
<path d="M391.71 230.915L390.844 222.678L398.411 219.308L403.954 225.464L399.812 232.637L391.71 230.915Z" fill="#BA3E03" fill-opacity="0.9"/>
<path d="M193.985 143.255L198.15 137.728L200.854 144.099L193.985 143.255Z" fill="#03A3F5" fill-opacity="0.75"/>
<path d="M311.659 36.8925L306.98 36.483L305.923 31.906L309.95 29.4867L313.495 32.5685L311.659 36.8925Z" fill="#480CA7" fill-opacity="0.9"/>
<path d="M20.7816 267.437L28.8525 265.574L33.1186 272.674L27.6844 278.925L20.0597 275.689L20.7816 267.437Z" fill="#9DED1A" fill-opacity="0.75"/>
<path d="M138.243 215.677L134.541 212.785L136.148 208.371L140.842 208.535L142.137 213.05L138.243 215.677Z" fill="#4BC8EF" fill-opacity="0.75"/>
<path d="M106.633 2.294L113.55 3.63846L115.844 10.3007L111.221 15.6184L104.305 14.274L102.011 7.61176L106.633 2.294Z" fill="#BA3E03"/>
<path d="M245.315 152.674L240.572 157.941L234.097 155.058L234.838 148.009L241.771 146.535L245.315 152.674Z" fill="#480CA7" fill-opacity="0.35"/>
<path d="M226.946 90.2563L222.616 87.7563V82.7563L226.946 80.2563L231.276 82.7563V87.7563L226.946 90.2563Z" fill="#03A3F5" fill-opacity="0.65"/>
<path d="M311.785 137.502L306.89 142.571L300.053 140.866L298.111 134.093L303.006 129.024L309.843 130.729L311.785 137.502Z" fill="#9DED1A" fill-opacity="0.85"/>
<path d="M461.512 25.4777L463.73 19.6074L460.717 14.1029L466.587 16.3204L472.092 13.3075L469.874 19.1778L472.887 24.6823L467.017 22.4648L461.512 25.4777Z" fill="#4BC8EF" fill-opacity="0.9"/>
<path d="M199.228 73.0076L199.831 68.1414L194.987 67.3804L199.503 65.4701L197.74 60.8944L201.653 63.8504L204.734 60.0357L204.13 64.902L208.974 65.663L204.458 67.5733L206.221 72.1489L202.309 69.193L199.228 73.0076Z" fill="#DCBCFA" fill-opacity="0.75"/>
<path d="M285.173 107.53L280.573 110.743L283.635 115.445L278.552 113.067L276.011 118.07L275.529 112.48L269.926 112.78L274.527 109.568L271.465 104.866L276.547 107.243L279.088 102.241L279.57 107.831L285.173 107.53Z" fill="#DCBCFA" fill-opacity="0.45"/>
<path d="M210.59 210.055L205.354 208.037L203.168 213.205L202.298 207.662L196.729 208.353L201.094 204.827L197.712 200.35L202.948 202.368L205.134 197.2L206.004 202.743L211.573 202.052L207.208 205.578L210.59 210.055Z" fill="#4BC8EF" fill-opacity="0.75"/>
<path d="M89.4466 71.4464L84.1428 74.8001L83.2363 81.0094L79.8826 75.7056L73.6733 74.7991L78.9771 71.4454L79.8836 65.2361L83.2373 70.5399L89.4466 71.4464Z" fill="#9DED1A" fill-opacity="0.9"/>
<path d="M159.846 153.667L157.215 152.44L155.235 154.563L155.589 151.681L152.958 150.455L155.808 149.901L156.162 147.019L157.569 149.558L160.419 149.004L158.439 151.128L159.846 153.667Z" fill="#C9FCBE" fill-opacity="0.35"/>
<path d="M111.192 21.7331L106.15 22.622L105.438 27.6915L103.034 23.1714L97.9929 24.0604L101.549 20.3779L99.1457 15.8578L103.747 18.1019L107.303 14.4194L106.591 19.4889L111.192 21.7331Z" fill="#C9FCBE" fill-opacity="0.6"/>
<path d="M270.85 192.721L272.035 189.278L269.127 187.086L272.768 187.149L273.954 183.706L275.018 187.189L278.66 187.252L275.677 189.341L276.741 192.824L273.833 190.632L270.85 192.721Z" fill="#F62584" fill-opacity="0.9"/>
<path d="M293.264 67.6002L290.882 70.1484L293.352 72.612L289.954 71.823L289.055 75.1937L288.039 71.8564L284.671 72.7635L287.053 70.2153L284.583 67.7517L287.981 68.5407L288.88 65.17L289.896 68.5073L293.264 67.6002Z" fill="#FC9E1C" fill-opacity="0.6"/>
<path d="M433.512 125.642L436.459 123.501L435.333 120.038L438.28 122.178L441.226 120.038L440.1 123.501L443.047 125.642L439.405 125.642L438.28 129.106L437.154 125.642L433.512 125.642Z" fill="#03A3F5" fill-opacity="0.85"/>
</svg>
